<?xml version="1.0" encoding="utf-8"?>
<!-- Generator: Adobe Illustrator 16.0.3, SVG Export Plug-In . SVG Version: 6.00 Build 0)  -->
<!DOCTYPE svg PUBLIC "-//W3C//DTD SVG 1.1//EN" "http://www.w3.org/Graphics/SVG/1.1/DTD/svg11.dtd">
<svg version="1.1" id="Ebene_1" xmlns="http://www.w3.org/2000/svg" xmlns:xlink="http://www.w3.org/1999/xlink" x="0px" y="0px"
	 width="190px" height="190px" viewBox="0 0 190 190" enable-background="new 0 0 190 190" xml:space="preserve">
<circle fill="#EDEDED" cx="95" cy="94.999" r="95"/>
<g>
	<g>
		<path fill="#333333" d="M95.123,32.648c14.353,0,25.983,7.118,25.983,30.411c0,16.796-11.634,30.409-25.983,30.409
			c-14.349,0-25.983-13.613-25.983-30.409C69.14,39.766,80.774,32.648,95.123,32.648z"/>
		<path fill="#333333" d="M152.004,144.463c-1.214,1.871-3.271,2.982-5.495,2.982H43.737c-2.225,0-4.283-1.111-5.495-2.982
			c-1.215-1.862-1.4-4.196-0.498-6.229l13.113-29.531c0.598-1.352,1.651-2.474,2.962-3.154l20.345-10.59
			c0.446-0.234,0.988-0.185,1.393,0.117c5.756,4.352,12.521,6.651,19.565,6.651c7.046,0,13.811-2.3,19.566-6.651
			c0.401-0.301,0.943-0.351,1.393-0.117l20.345,10.59c1.312,0.681,2.363,1.803,2.962,3.154l13.113,29.531
			C153.405,140.267,153.22,142.601,152.004,144.463z"/>
	</g>
</g>
</svg>
